<?xml version="1.0" standalone="no"?>
<!DOCTYPE svg PUBLIC "-//W3C//DTD SVG 20010904//EN"
 "http://www.w3.org/TR/2001/REC-SVG-20010904/DTD/svg10.dtd">
<svg version="1.0" xmlns="http://www.w3.org/2000/svg"
 width="629.000000pt" height="551.000000pt" viewBox="0 0 629.000000 551.000000"
 preserveAspectRatio="xMidYMid meet">

<g transform="translate(0.000000,551.000000) scale(0.100000,-0.100000)"
fill="#000000" stroke="none">
<path d="M2565 5239 c-131 -16 -260 -35 -275 -41 -15 -6 -56 -17 -165 -44 -74
-19 -105 -36 -50 -27 36 6 39 5 27 -10 -17 -20 -165 -108 -212 -125 -19 -7
-39 -17 -44 -22 -6 -6 -17 -10 -26 -10 -20 0 -70 -23 -70 -32 0 -4 17 -10 38
-13 128 -22 300 -83 405 -145 73 -42 241 -169 234 -176 -2 -2 -31 12 -63 31
-145 88 -318 158 -472 191 -202 42 -565 22 -692 -39 -75 -35 -250 -186 -335
-288 -33 -39 -65 -76 -70 -83 -34 -37 -165 -230 -165 -242 0 -3 -9 -18 -19
-32 -29 -42 -99 -211 -131 -319 -31 -106 -48 -237 -65 -508 -4 -55 -15 -152
-25 -215 -10 -63 -26 -163 -35 -222 -13 -81 -16 -154 -13 -298 1 -104 2 -190
1 -190 -1 0 -22 33 -47 74 -42 71 -86 189 -86 234 0 27 -10 52 -21 52 -12 0
-11 -47 3 -133 12 -75 74 -211 150 -327 21 -32 46 -89 58 -135 41 -151 81
-249 188 -460 43 -85 154 -265 197 -320 18 -22 42 -57 54 -77 19 -32 20 -38 7
-38 -9 0 -16 -3 -16 -8 0 -14 205 -208 271 -257 35 -26 87 -58 114 -72 28 -14
66 -39 85 -55 47 -39 53 -43 70 -51 8 -4 42 -26 75 -47 33 -22 71 -45 85 -51
14 -6 38 -20 55 -32 40 -29 217 -116 330 -162 50 -20 104 -43 120 -50 17 -7
55 -21 85 -31 30 -9 60 -20 65 -24 6 -4 26 -11 45 -15 19 -4 41 -11 50 -16 35
-18 344 -88 523 -118 192 -33 755 -39 937 -12 222 34 335 55 430 80 506 134
875 329 1261 668 346 303 575 707 652 1148 9 50 23 131 31 180 29 164 41 357
41 635 0 372 -25 559 -107 800 -26 76 -35 93 -99 190 -157 235 -396 415 -678
509 -189 63 -266 76 -481 76 -165 0 -210 -4 -291 -22 -122 -28 -244 -73 -336
-124 -81 -45 -97 -40 -29 9 110 79 282 147 449 179 133 25 350 23 490 -5 59
-12 113 -19 121 -16 29 11 246 -83 366 -160 54 -34 72 -39 51 -14 -160 200
-361 375 -556 484 -53 31 -223 113 -245 119 -14 4 -29 11 -35 15 -19 15 -230
73 -315 87 -149 25 -329 26 -470 4 -69 -10 -160 -29 -202 -41 l-76 -22 -54 27
c-29 15 -61 35 -71 46 -11 12 -31 19 -53 19 -20 0 -68 11 -107 24 -264 88
-317 97 -577 101 -118 2 -246 -1 -285 -6z m272 -544 c183 -89 188 -92 191
-115 3 -20 -41 -174 -56 -195 -19 -27 -42 -37 -56 -25 -8 6 -34 21 -57 33 -24
12 -45 27 -47 34 -2 7 11 21 30 32 46 28 58 39 58 58 0 25 -60 75 -141 117
-85 44 -129 81 -129 109 0 34 76 16 207 -48z m473 12 c0 -8 11 -20 25 -27 28
-15 30 -43 2 -48 -12 -2 -17 3 -17 18 0 13 -10 24 -27 31 -37 14 -78 0 -78
-26 0 -17 9 -21 50 -25 39 -4 45 -7 26 -12 -13 -4 -20 -11 -16 -17 13 -22 -70
-10 -125 17 -106 52 -67 101 83 102 58 0 77 -3 77 -13z m100 -22 c17 -9 30
-17 30 -19 0 -3 3 -11 6 -20 8 -22 -52 -56 -96 -55 l-35 1 30 7 c40 8 60 47
39 78 -17 27 -13 28 26 8z m435 -198 c17 -13 15 -16 -23 -37 -43 -24 -53 -44
-27 -54 9 -3 15 -19 15 -41 0 -42 -23 -55 -98 -55 -26 0 -78 -7 -117 -15 -88
-19 -85 -19 -85 8 0 12 -3 56 -6 99 l-6 76 63 5 c35 2 80 9 99 15 53 15 163
14 185 -1z m-762 -248 c10 -5 47 -13 83 -16 66 -6 81 -16 42 -29 -13 -3 -65
-31 -116 -61 -52 -30 -100 -52 -108 -49 -15 6 -17 33 -8 123 l7 60 41 -9 c22
-5 49 -14 59 -19z m-708 1 c123 -12 323 -54 339 -71 12 -12 2 -11 -134 11
-110 17 -443 24 -574 11 -292 -29 -538 -113 -770 -265 -218 -141 -433 -374
-589 -636 -70 -116 -74 -100 -8 35 157 327 379 573 657 733 110 63 178 92 212
92 15 0 39 6 54 14 29 15 283 61 414 75 115 12 273 12 399 1z m1590 -175 c387
-62 698 -217 955 -475 176 -176 297 -367 365 -574 38 -116 30 -132 -17 -31
-218 473 -581 788 -1107 961 -133 44 -407 106 -526 118 -33 4 -64 12 -70 18
-14 15 273 3 400 -17z m-847 -64 c-30 -32 -72 -80 -93 -107 -69 -87 -72 -82
-7 11 40 57 132 155 145 155 5 0 -15 -26 -45 -59z m32 -236 c0 -2 -16 -30 -36
-61 -134 -209 -195 -475 -224 -979 -5 -93 -10 -191 -10 -217 0 -138 -42 33
-61 250 -30 350 50 703 208 912 43 58 123 119 123 95z m2660 -1138 c0 -19 -8
-25 -37 -33 -31 -7 -39 -14 -41 -36 -3 -23 1 -28 18 -28 33 0 77 -27 84 -52
24 -90 -11 -162 -78 -162 -39 0 -58 17 -49 41 4 9 14 12 28 9 12 -3 31 1 43
10 44 31 14 109 -39 102 -41 -6 -50 11 -47 89 3 66 4 68 33 74 65 14 85 11 85
-14z m-184 -28 c28 -31 26 -139 -4 -196 -12 -23 -22 -45 -22 -48 0 -4 17 -4
39 0 30 5 40 3 45 -10 3 -9 4 -20 1 -24 -7 -12 -122 -34 -140 -28 -22 9 -19
27 20 101 34 65 44 121 29 160 -7 18 -49 22 -59 6 -9 -15 -25 -12 -32 5 -18
48 85 76 123 34z m-4208 -39 c47 -29 66 -80 59 -157 -9 -98 -45 -150 -108
-159 -19 -2 -45 1 -59 8 -83 44 -77 247 9 305 42 28 57 29 99 3z m4270 -480
c-5 -84 -15 -107 -44 -96 -15 6 -16 16 -10 83 8 89 10 93 38 93 19 0 20 -4 16
-80z m-4329 -30 c1 -14 0 -67 -4 -118 -6 -75 -10 -94 -25 -102 -21 -11 -46 -5
-53 13 -6 15 10 196 19 220 11 28 58 19 63 -13z m4125 -104 c-2 -81 -11 -103
-39 -92 -15 5 -16 16 -10 84 8 88 11 94 33 90 14 -3 17 -16 16 -82z m-219
-110 c-7 -88 -12 -100 -40 -90 -16 6 -17 16 -11 88 7 80 16 99 44 89 12 -5 13
-21 7 -87z m-3662 -16 c-2 -85 -10 -107 -38 -96 -14 5 -15 17 -9 88 6 79 16
102 39 94 6 -2 9 -38 8 -86z m3404 -53 c-6 -84 -15 -104 -43 -93 -15 6 -16 16
-10 83 8 82 18 105 43 96 13 -5 15 -20 10 -86z m-3110 47 c3 -8 2 -48 -3 -87
-8 -65 -11 -72 -33 -75 l-24 -4 6 82 c4 44 9 85 12 91 10 14 35 11 42 -7z
m2853 -108 c0 -79 -13 -119 -38 -114 -15 3 -17 14 -14 78 3 91 6 100 32 100
18 0 20 -6 20 -64z m-2546 -30 c-2 -81 -11 -103 -40 -92 -15 6 -16 16 -10 83
8 87 11 95 34 91 14 -3 17 -16 16 -82z m316 -39 c0 -81 -15 -115 -45 -103 -15
5 -17 15 -10 84 8 89 9 92 36 92 17 0 19 -7 19 -73z m1940 9 c0 -79 -13 -119
-38 -114 -15 3 -17 14 -14 78 3 91 6 100 32 100 18 0 20 -6 20 -64z m-1632 11
c8 -9 9 -37 4 -85 -9 -80 -22 -103 -47 -82 -12 10 -14 26 -9 84 8 88 25 115
52 83z m1322 -51 c0 -73 -13 -116 -34 -116 -21 0 -27 27 -21 94 8 80 11 86 35
86 18 0 20 -6 20 -64z m-978 -37 c-3 -89 -10 -106 -38 -95 -15 6 -16 16 -10
83 6 75 19 107 40 100 7 -3 10 -33 8 -88z m332 -23 c-7 -79 -25 -110 -48 -86
-17 19 -6 158 15 170 29 19 40 -10 33 -84z m324 33 c2 -30 0 -69 -3 -87 -5
-27 -10 -33 -28 -30 -21 3 -22 7 -18 78 2 41 8 81 14 88 19 24 32 6 35 -49z
m-2430 -294 c50 -90 92 -168 92 -174 0 -6 -48 7 -107 28 -157 56 -183 68 -183
86 0 9 16 55 36 103 43 103 52 122 62 122 4 0 49 -74 100 -165z"/>
<path d="M1341 2506 c-41 -43 -42 -198 -1 -211 34 -11 57 11 70 66 16 64 8
138 -16 156 -24 17 -27 17 -53 -11z"/>
<path d="M1670 4950 c-13 -8 -12 -10 3 -10 9 0 17 5 17 10 0 12 -1 12 -20 0z"/>
<path d="M710 1371 c0 -6 4 -13 10 -16 6 -3 7 1 4 9 -7 18 -14 21 -14 7z"/>
<path d="M772 1300 c7 -11 18 -22 25 -24 19 -8 5 18 -17 32 -19 11 -19 11 -8
-8z"/>
</g>
</svg>
